<svg xmlns="http://www.w3.org/2000/svg" width="40" height="40" viewBox="0 0 40 40">
  <g id="icon_new" data-name="icon/new" transform="translate(-1856 -92)">
    <rect id="Rectangle_1687" data-name="Rectangle 1687" width="40" height="40" transform="translate(1856 92)" fill="none"/>
    <path id="Union_34" data-name="Union 34" d="M1912.342-3232.363c-1.553,0-2.342-.717-2.342-2.132v-12.373c0-1.415.788-2.132,2.342-2.132h7.864a.77.77,0,0,1,.77.77.77.77,0,0,1-.77.769h-7.864c-.468,0-.643.072-.707.133s-.1.2-.1.461v12.372c0,.258.03.4.1.461s.239.133.707.133h11.953c.468,0,.643-.072.708-.133s.1-.2.1-.461v-8.912a.77.77,0,0,1,.769-.77.77.77,0,0,1,.77.77v8.912c0,1.415-.787,2.132-2.342,2.132Z" transform="translate(-43.35 3353.725)" fill="#17c0cc"/>
    <path id="Path_10333" data-name="Path 10333" d="M47.176,2.107a.823.823,0,0,0-.145.01.464.464,0,0,0-.228.117l-2.9,2.9L37.886,11.1a.419.419,0,0,0-.119.233l-.4,2.56a.419.419,0,0,0,.414.484.43.43,0,0,0,.054,0l2.442-.319a.419.419,0,0,0,.351-.08.394.394,0,0,0,.049-.048c.007-.006.015-.009.021-.015l8.89-8.893a.421.421,0,0,0,.117-.228,2.239,2.239,0,0,0-.839-1.833,2.461,2.461,0,0,0-1.69-.854ZM38.583,13.151a1.132,1.132,0,0,0-.225-.176l.168-1.072a2.307,2.307,0,0,1,.866.593,1.993,1.993,0,0,1,.509.76l-1.109.144a1.911,1.911,0,0,0-.209-.249ZM40.62,12.8a2.967,2.967,0,0,0-.635-.9,3.373,3.373,0,0,0-.995-.719L44.5,5.726l2.77-2.773a1.858,1.858,0,0,1,1,.6,1.869,1.869,0,0,1,.6,1Z" transform="translate(1834.958 100.893)" fill="#17c0cc"/>
    <path id="Path_10333_-_Outline" data-name="Path 10333 - Outline" d="M47.176,1.757a2.806,2.806,0,0,1,1.936.951,2.556,2.556,0,0,1,.937,2.138.768.768,0,0,1-.214.417l-8.894,8.9a.388.388,0,0,1-.033.028.666.666,0,0,1-.063.057.777.777,0,0,1-.575.159l-2.391.312a.787.787,0,0,1-.1.006.769.769,0,0,1-.76-.889l.4-2.56a.764.764,0,0,1,.219-.427l6.019-5.964,2.9-2.9a.812.812,0,0,1,.406-.213,1.142,1.142,0,0,1,.213-.015ZM40.47,13.64l8.868-8.871a.07.07,0,0,0,.019-.038A1.923,1.923,0,0,0,48.616,3.2a2.14,2.14,0,0,0-1.441-.746.652.652,0,0,0-.08,0,.132.132,0,0,0-.045.021l-2.9,2.9L38.13,11.34a.068.068,0,0,0-.02.038l-.4,2.561a.07.07,0,0,0,.019.059.069.069,0,0,0,.049.021h.01l2.5-.327.06.014a.07.07,0,0,0,.055-.011l.007-.008.015-.017.017-.015ZM47.147,2.582l.174.025a2.186,2.186,0,0,1,1.2.7,2.21,2.21,0,0,1,.7,1.2l.026.174-8.734,8.737L40.3,12.94a2.642,2.642,0,0,0-.563-.791,3.069,3.069,0,0,0-.89-.647l-.466-.209L44.25,5.477Zm1.332,1.861a1.908,1.908,0,0,0-.456-.646,1.892,1.892,0,0,0-.647-.455L44.744,5.974,39.567,11.1a4.288,4.288,0,0,1,.665.55,3.683,3.683,0,0,1,.469.569ZM38.245,11.436l.394.135a2.7,2.7,0,0,1,1,.676,2.356,2.356,0,0,1,.593.9l.135.4-1.739.227-.122-.172a1.559,1.559,0,0,0-.171-.2.79.79,0,0,0-.156-.123l-.2-.121Zm1.1,1.538a2.36,2.36,0,0,0-.2-.232,2.908,2.908,0,0,0-.349-.3l-.059.376q.049.041.094.087c.04.04.077.08.114.123Z" transform="translate(1834.958 100.893)" fill="#17c0cc"/>
  </g>
</svg>
