<svg xmlns="http://www.w3.org/2000/svg" width="65.33" height="52.664" viewBox="0 0 65.33 52.664">
  <path id="Icon_awesome-car-alt" data-name="Icon awesome-car-alt" d="M23.287,3.5H40.043a15.7,15.7,0,0,1,14.649,9.917L58.647,23.3a9.462,9.462,0,0,1,3.966,3.226,9.326,9.326,0,0,1,1.717,5.413v6.333a9.4,9.4,0,0,1-2.111,5.9v6.77A5.228,5.228,0,0,1,57,56.164H52.775a5.228,5.228,0,0,1-5.222-5.222V47.72H15.777v3.222a5.228,5.228,0,0,1-5.222,5.222H6.333a5.228,5.228,0,0,1-5.222-5.222v-6.77A9.4,9.4,0,0,1-1,38.276V31.943A9.326,9.326,0,0,1,.717,26.53,9.462,9.462,0,0,1,4.684,23.3l3.955-9.888A15.7,15.7,0,0,1,23.287,3.5ZM57,54.164a3.226,3.226,0,0,0,3.222-3.222v-7.51l.247-.283a7.32,7.32,0,0,0,1.864-4.874V31.943a7.336,7.336,0,0,0-1.35-4.258,7.474,7.474,0,0,0-3.459-2.68l-.41-.156L52.835,14.16A13.711,13.711,0,0,0,40.043,5.5H23.287A13.711,13.711,0,0,0,10.5,14.16L6.22,24.849l-.41.156a7.474,7.474,0,0,0-3.459,2.68A7.336,7.336,0,0,0,1,31.943v6.333A7.325,7.325,0,0,0,2.864,43.15l.247.283v7.509a3.226,3.226,0,0,0,3.222,3.222h4.222a3.226,3.226,0,0,0,3.222-3.222V45.72H49.553v5.222a3.226,3.226,0,0,0,3.222,3.222Zm-33.71-42.22H40.043a7.334,7.334,0,0,1,6.809,4.609L50.03,24.5H13.3l3.178-7.946a7.334,7.334,0,0,1,6.809-4.609ZM47.076,22.5,45,17.3a5.334,5.334,0,0,0-4.952-3.352H23.287A5.334,5.334,0,0,0,18.335,17.3l-2.081,5.2ZM10.555,28.832a7.535,7.535,0,0,1,4.822,2.5,7.5,7.5,0,0,1,2.511,4.812,2.782,2.782,0,0,1-1.99,2.714,9.859,9.859,0,0,1-3.285.417c-.376,0-.748-.007-1.108-.014-.335-.006-.652-.012-.95-.012A5.2,5.2,0,0,1,6.788,37.8a5.585,5.585,0,0,1,0-7.519A5.2,5.2,0,0,1,10.555,28.832Zm2.058,8.444c3.275,0,3.275-.736,3.275-1.131a5.769,5.769,0,0,0-1.923-3.4,5.8,5.8,0,0,0-3.41-1.918,2.983,2.983,0,0,0-3.222,3.209,2.983,2.983,0,0,0,3.222,3.209c.317,0,.643.006.988.013S12.256,37.276,12.613,37.276Zm40.162-8.444a5.211,5.211,0,1,1,0,10.418h0c-.3,0-.615.006-.95.012-.36.007-.732.014-1.108.014a9.859,9.859,0,0,1-3.285-.417,2.782,2.782,0,0,1-1.989-2.714,7.5,7.5,0,0,1,2.511-4.812A7.535,7.535,0,0,1,52.775,28.832Zm0,8.418A2.983,2.983,0,0,0,56,34.041a2.983,2.983,0,0,0-3.222-3.209,5.8,5.8,0,0,0-3.41,1.918,5.769,5.769,0,0,0-1.923,3.4c0,.4,0,1.131,3.275,1.131.357,0,.72-.007,1.07-.014s.671-.013.988-.013Z" transform="translate(1 -3.5)" fill="#17c0cc"/>
</svg>
