<svg xmlns="http://www.w3.org/2000/svg" width="62" height="38.013" viewBox="0 0 62 38.013">
  <path id="Icon_awesome-handshake" data-name="Icon awesome-handshake" d="M19.247,3.5H29.676L20.11,12.259a5.748,5.748,0,0,0,7.773,8.471l3.447-3.16L46,29.477a4.005,4.005,0,0,1,.577,5.635l-.891,1.1a3.964,3.964,0,0,1-3.1,1.481A4.02,4.02,0,0,1,40.336,37l-2.322,2.855a4.483,4.483,0,0,1-6.312.649l-.022-.018-.955-.827a7,7,0,0,1-9.156.284l-.04-.034-8.2-7.42H11V10.085l5.422-5.412A3.971,3.971,0,0,1,19.247,3.5Zm5.283,2H19.247a1.985,1.985,0,0,0-1.412.588L13,10.915V30.491h1.1l8.75,7.918a4.929,4.929,0,0,0,3.126,1.1,4.99,4.99,0,0,0,3.886-1.847l.032-.04.713-.713,2.371,2.053a2.438,2.438,0,0,0,1.55.548,2.478,2.478,0,0,0,1.933-.918l3.576-4.4,1.282,1.045a2,2,0,0,0,2.808-.292l.894-1.1a2.014,2.014,0,0,0-.288-2.824L31.408,20.211l-2.176,2A7.748,7.748,0,0,1,18.758,10.785Zm8.17-2h8.053a3.993,3.993,0,0,1,2.828,1.176l5.41,5.41V31.271l-1.747-1.966a5.743,5.743,0,0,0-.628-.613L32.07,16.883l3.3-3.024a.508.508,0,0,0,.163-.35.485.485,0,0,0-.128-.353L35.4,13.15a.486.486,0,0,0-.363-.156.509.509,0,0,0-.343.131l-7.483,6.856a1.016,1.016,0,0,1-.143.11,4.675,4.675,0,0,1-3.025,1.073A4.847,4.847,0,0,1,20.5,19.687a4.729,4.729,0,0,1,.186-6.592c.02-.024.043-.051.07-.077l.031-.03L30,4.55A3.99,3.99,0,0,1,32.7,3.5Zm14.291,7.414L42.159,6.082A1.98,1.98,0,0,0,40.753,5.5H32.7a2,2,0,0,0-1.35.525L22.2,14.4c-.018.021-.037.043-.06.065l-.023.022a2.706,2.706,0,0,0-.866,1.922,2.744,2.744,0,0,0,.722,1.924,2.862,2.862,0,0,0,2.071.827,2.65,2.65,0,0,0,1.78-.64,1.015,1.015,0,0,1,.116-.091l7.407-6.786a2.507,2.507,0,0,1,3.532.156,2.469,2.469,0,0,1,.654,1.8,2.5,2.5,0,0,1-.807,1.731l-1.595,1.46,11.86,9.628ZM-1,9.519H10V31.5a4,4,0,0,1-4,4H-1Zm9,2H1V33.5H6a2,2,0,0,0,2-2Zm42-2H61V35.509H54a4,4,0,0,1-4-4Zm9,2H52V31.509a2,2,0,0,0,2,2h5ZM4.5,27.509a2.5,2.5,0,1,1-2.5,2.5A2.5,2.5,0,0,1,4.5,27.509Zm0,3a.5.5,0,0,0,0-1,.5.5,0,0,0-.5.5A.507.507,0,0,0,4.5,30.509Zm51-3a2.5,2.5,0,1,1-2.5,2.5A2.5,2.5,0,0,1,55.5,27.509Zm0,3a.5.5,0,1,0-.5-.5A.507.507,0,0,0,55.5,30.509Z" transform="translate(1 -3.5)" fill="#17c0cc"/>
</svg>
