<svg xmlns="http://www.w3.org/2000/svg" width="78.71" height="77.845" viewBox="0 0 78.71 77.845">
  <g id="Icon_ionic-ios-megaphone" data-name="Icon ionic-ios-megaphone" transform="matrix(0.914, -0.407, 0.407, 0.914, -6.303, 24.023)">
    <path id="Path_10657" data-name="Path 10657" d="M13.889,31.847a1.73,1.73,0,0,1-.341-.036l-.056-.012-.054-.018a15.487,15.487,0,0,1-5.916-3.549,12.331,12.331,0,0,1-3.44-5.9A3.133,3.133,0,0,1,2.368,19.4,3.621,3.621,0,0,1,2.947,17.4a2.72,2.72,0,0,1,.956-.893C5.017,10.489,9.8,6.179,15.483,6.179a1.467,1.467,0,0,1,.764,2.72,12.012,12.012,0,0,0-4.211,4.388,12.588,12.588,0,0,0-1.582,6.137,12.148,12.148,0,0,0,1.263,5.247,14.307,14.307,0,0,0,3.254,4.338,1.63,1.63,0,0,1-1.082,2.838ZM13.546,8.383A9.238,9.238,0,0,0,9.069,10.8a11.333,11.333,0,0,0-3.283,6.584l-.1.73-.728.117c-.245.039-.587.5-.587,1.162s.331,1.113.639,1.138l.752.062.147.741A10.337,10.337,0,0,0,8.918,26.8a13.08,13.08,0,0,0,3.419,2.379,16.348,16.348,0,0,1-2.419-3.637,14.157,14.157,0,0,1-1.463-6.119,14.593,14.593,0,0,1,1.836-7.114A14.086,14.086,0,0,1,13.546,8.383Z" transform="translate(0 3.999)" fill="#17c0cc"/>
    <path id="Path_10658" data-name="Path 10658" d="M47.711,2.375a8.069,8.069,0,0,1,5.7,2.415l.015.015A15.754,15.754,0,0,1,56.772,9.76l0,.006c.161.366.327.744.481,1.158a34.911,34.911,0,0,1,2.07,12.15,34.453,34.453,0,0,1-2.042,12.174l0,.007c-.164.416-.327.8-.486,1.178l-.008.019a15.988,15.988,0,0,1-3.328,4.935c-2.374,2.418-4.42,2.926-5.719,2.926a8.739,8.739,0,0,1-3.252-.742c-1.3-.5-2.491-1.011-3.643-1.509-3.718-1.609-6.93-3-12.057-3a.429.429,0,0,0-.332.168c-.369.383-1.019,1.62-1.219,5.6-.14,2.793-.021,6.055.075,8.675.051,1.4.1,2.614.1,3.556,0,.964.025,1.779.047,2.5.062,2.04.1,3.272-.687,4.082a3.13,3.13,0,0,1-2.35.737,20.14,20.14,0,0,1-5.859-1.314c-1.41-.5-3.9-1.485-4.72-2.483l0-.005c-1.3-1.6-1.145-3.479-.79-5.964.23-1.611,1.435-6.915,2.4-11.178.578-2.543,1.077-4.74,1.209-5.451.1-.532.105-.564-.88-1.085a10.028,10.028,0,0,1-1.758-1.114,13.974,13.974,0,0,1-4.933-5.1,14.764,14.764,0,0,1-1.893-7.257A14.433,14.433,0,0,1,9.6,15.438a14.229,14.229,0,0,1,6.01-5.153,1.057,1.057,0,0,1,.444-.123l.139-.005c.141,0,.377-.007.7-.01.946-.008,2.589-.012,4.882-.012A40.928,40.928,0,0,0,32.524,8.259a49.013,49.013,0,0,0,10.95-4.616l.072-.043A7.475,7.475,0,0,1,47.711,2.375Zm4.333,3.876a6.1,6.1,0,0,0-4.333-1.876,5.572,5.572,0,0,0-3.126.933l-.078.047a51.049,51.049,0,0,1-11.415,4.821,42.318,42.318,0,0,1-11.314,1.958c-3.867,0-5.072.012-5.446.019a12.242,12.242,0,0,0-5.064,4.388A12.542,12.542,0,0,0,15.106,34.1l.069.041.061.051a7.955,7.955,0,0,0,1.474.933c1.019.539,2.286,1.209,1.911,3.22C18.482,39.1,18,41.2,17.4,43.874c-.96,4.227-2.155,9.487-2.374,11.017-.34,2.379-.365,3.52.361,4.417a12.209,12.209,0,0,0,3.842,1.867,18.837,18.837,0,0,0,5.192,1.2c.78,0,.913-.128.914-.129s.089-.1.129-.568a20.59,20.59,0,0,0-.006-2.06c-.022-.733-.047-1.565-.047-2.559,0-.906-.044-2.1-.094-3.483-.1-2.659-.219-5.969-.074-8.849.182-3.628.747-5.815,1.777-6.883a2.424,2.424,0,0,1,1.772-.78c5.541,0,9.092,1.536,12.851,3.163,1.131.49,2.3,1,3.558,1.475a6.823,6.823,0,0,0,2.543.612,6.558,6.558,0,0,0,4.291-2.326,13.91,13.91,0,0,0,2.927-4.343c.152-.358.308-.728.46-1.115a32.91,32.91,0,0,0,1.909-11.451,32.864,32.864,0,0,0-1.937-11.436l-.005-.014c-.133-.36-.281-.7-.438-1.052A13.786,13.786,0,0,0,52.043,6.251ZM48.59,7.74c1.834,0,3.713,1.656,4.788,4.219a30.265,30.265,0,0,1,2.169,11.19A29.77,29.77,0,0,1,53.41,34.3C52.459,36.635,50.6,38.99,48.6,38.99c-1.662,0-3.148-1.578-4.416-4.69A30.943,30.943,0,0,1,42.34,23.149a31.038,31.038,0,0,1,1.849-11.182,9.562,9.562,0,0,1,1.786-2.955A3.581,3.581,0,0,1,48.59,7.74ZM48.6,36.99c.65,0,2.038-1.2,2.954-3.445a27.728,27.728,0,0,0,1.989-10.393A28.191,28.191,0,0,0,51.532,12.73c-.607-1.448-1.845-2.989-2.942-2.989-.818,0-1.8,1.144-2.551,2.985a29.008,29.008,0,0,0-1.7,10.423,28.912,28.912,0,0,0,1.7,10.395C47.011,35.925,48.027,36.99,48.6,36.99Z" transform="translate(5.071 0)" fill="#17c0cc"/>
  </g>
</svg>
