<svg xmlns="http://www.w3.org/2000/svg" width="46.949" height="44.636" viewBox="0 0 46.949 44.636">
  <g id="Icon_feather-check-square" data-name="Icon feather-check-square" transform="translate(-3 -3)">
    <path id="Path_10661" data-name="Path 10661" d="M20.439,30.631a1.5,1.5,0,0,1-1.061-.439l-6.939-6.939a1.5,1.5,0,1,1,2.121-2.121l5.879,5.879L42.51,4.939a1.5,1.5,0,0,1,2.121,2.121L21.5,30.192A1.5,1.5,0,0,1,20.439,30.631Z" transform="translate(4.879 0.813)" fill="#17c0cc"/>
    <path id="Path_10662" data-name="Path 10662" d="M41.51,47.636H9.126A6.133,6.133,0,0,1,3,41.51V9.126A6.126,6.126,0,0,1,9.126,3H34.57a1.5,1.5,0,1,1,0,3H9.126A3.126,3.126,0,0,0,6,9.126V41.51a3.13,3.13,0,0,0,3.126,3.126H41.51a3.13,3.13,0,0,0,3.126-3.126V25.318a1.5,1.5,0,0,1,3,0V41.51A6.133,6.133,0,0,1,41.51,47.636Z" fill="#17c0cc"/>
  </g>
</svg>
